<?xml version="1.0" encoding="utf-8"?>
<!-- Generator: Adobe Illustrator 23.0.1, SVG Export Plug-In . SVG Version: 6.00 Build 0)  -->
<svg version="1.1" id="Layer_1" xmlns="http://www.w3.org/2000/svg" xmlns:xlink="http://www.w3.org/1999/xlink" x="0px" y="0px"
	 viewBox="0 0 600 600" style="enable-background:new 0 0 600 600;" xml:space="preserve">
<style type="text/css">
	.st0{stroke:#000000;stroke-miterlimit:10;}
	.st1{opacity:0.3;fill:#F5F4F5;enable-background:new    ;}
	.st2{fill:#263239;}
	.st3{fill:#F7BEBF;}
	.st4{fill:#FFFFFF;}
	.st5{fill:#4B6FB5;}
	.st6{fill:#FCC451;}
	.st7{opacity:0.2;fill:#010202;enable-background:new    ;}
	.st8{fill:#F9B006;}
	.st9{fill:#D1D1D1;}
	.st10{fill:#F08281;}
	.st11{opacity:0.1;fill:#FCC451;enable-background:new    ;}
	.st12{opacity:0.1;fill:#010202;enable-background:new    ;}
	.st13{opacity:0.7;fill:#FBFBFB;enable-background:new    ;}
	.st14{opacity:0.9;}
	.st15{opacity:0.1;fill:#263239;enable-background:new    ;}
</style>
<rect class="st0" width="600" height="600"/>
<ellipse id="_x3C_Path_x3E__120_" class="st1" cx="240" cy="408.8" rx="240" ry="14"/>
<path class="st2" d="M133.1,48.6c2.7,3.5,3,7.8,0.1,14.7c-1.2,2.9-2.9,5.7-6.4,0.8c-3.6-4.8-6.7-13.5-1.2-14.3
	C130.9,49.1,133.1,48.6,133.1,48.6z"/>
<polygon class="st3" points="131.9,397.2 141.2,397.2 141.5,376 132.3,376 "/>
<polygon class="st3" points="63.6,380.9 72.6,383.2 81.8,363.5 72.9,361.3 "/>
<path class="st4" d="M73.7,382.3l-9.8-3.3c-0.3-0.1-0.7,0-0.9,0.3l-4.1,7.2c-0.4,0.7,0,1.8,0.8,2c3.4,1.1,5.2,1.4,9.5,2.9
	c2.7,0.9,10.2,4,13.8,5.3c3.6,1.2,5.3-2.3,3.9-3.1c-6.3-3.7-10.3-7.7-11.9-10.4C74.8,382.8,74.3,382.4,73.7,382.3z"/>
<path class="st4" d="M141.1,396.2h-10c-0.4,0-0.7,0.3-0.7,0.6l-1.7,8.1c-0.2,0.8,0.5,1.7,1.3,1.7c3.6-0.1,8.9-0.3,13.4-0.3
	c5.4,0,6.4,0.3,12.7,0.3c3.8,0,4.7-3.8,3.1-4.1c-7.2-1.5-9.6-1.8-15.9-5.6C142.6,396.5,141.8,396.2,141.1,396.2z"/>
<path class="st3" d="M138.7,106.4l12.6-4c0,0,13,30,17.3,31.9c5.9,2.6,10.5,6.7,18.2,7.4c1,1.1,2.7,5,2.6,6.4
	c-10.2,3.8-25.9-0.2-30.2-4.2C149.1,134.7,138.7,106.4,138.7,106.4z"/>
<path class="st5" d="M135.7,99.5c-3.5,8,10.6,33.6,10.6,33.6l18.8-8.7c0,0-3.6-12.5-9.3-22.5C150,91.7,139.6,90.7,135.7,99.5z"/>
<path class="st6" d="M135.7,99.5c-3.5,8,10.6,33.6,10.6,33.6l18.8-8.7c0,0-3.6-12.5-9.3-22.5C150,91.7,139.6,90.7,135.7,99.5z"/>
<path class="st3" d="M185.1,141.8l7.1-3.7l3.6,10.4c0,0-2.3,1-9,0.2L185.1,141.8z"/>
<polygon class="st3" points="199.3,135.4 201.5,144.3 195.8,148.5 192.2,138 "/>
<g>
	<polygon class="st7" points="141.5,376 141.3,386.9 132.1,386.9 132.3,376 	"/>
	<polygon class="st7" points="72.9,361.3 81.8,363.6 77,373.7 68.2,371.4 	"/>
</g>
<path class="st5" d="M147.8,94.3c0,0,11.6,31.6,2.5,83.3c-14.9,0-42,0-49.2,0c-0.5-7.5,3.3-48.2-4.8-83.7c0,0,8.4-1.7,16.4-2.1
	c6.3-0.3,15.4-0.5,20.9,0C140.9,92.5,147.8,94.3,147.8,94.3z"/>
<path class="st8" d="M147.8,94.3c0,0,11.6,31.6,2.5,83.3c-14.9,0-42,0-49.2,0c-0.5-7.5,3.3-48.2-4.8-83.7c0,0,8.4-1.7,16.4-2.1
	c6.3-0.3,15.4-0.5,20.9,0C140.9,92.5,147.8,94.3,147.8,94.3z"/>
<path class="st7" d="M107.2,102.6c0.9,5.9-0.5,19.9-5.7,36c-0.3-12.5-1.4-26.9-4.4-41.3v-0.1C100.2,97,106.2,97.1,107.2,102.6z"/>
<path class="st3" d="M114.9,72.2c1.4,6.7,2.4,15.1-2.3,19.6c0,0,2.9,6.8,15.4,6.8c11.4,0,5.6-6.8,5.6-6.8c-7.5-1.8-7.4-11-6.2-16.3
	L114.9,72.2z"/>
<path class="st4" d="M128,98.5c-2.2,3.4-2.3,6.5-2.3,6.5s-15.8-5.6-15.3-13.6c0,0,2.2-1.3,3.6-2.4C114.1,89,114.8,95.3,128,98.5z"/>
<path class="st4" d="M128,98.5c2.4,3.4,3.2,6,3.2,6s7-4.8,4.6-12.8c0,0-2.1-0.8-4-1.2C131.8,90.5,132.9,96.8,128,98.5z"/>
<path class="st7" d="M127.4,75.4c-0.7,3.1-1,7.5,0.3,11c-1.1-0.2-2.3-0.5-3.4-1c-4.2-2-6.4-5.2-8.8-9.8c-0.2-1.2-0.4-2.4-0.7-3.5
	L127.4,75.4z"/>
<g>
	<path class="st3" d="M138.8,69.8c-1,2.3-3,3.7-4.8,4.4c-2.9,0.9-4.4-1.7-3.8-4.4c0.5-2.6,2.7-6.1,5.7-5.9
		C138.7,64.2,140.1,67.2,138.8,69.8z"/>
	<path class="st7" d="M138.8,69.8c-1,2.3-3,3.7-4.8,4.4c-2.9,0.9-4.4-1.7-3.8-4.4c0.5-2.6,2.7-6.1,5.7-5.9
		C138.7,64.2,140.1,67.2,138.8,69.8z"/>
</g>
<path class="st3" d="M110.8,62.5c1.7,9.1,2.2,14.4,7.3,18.7c7.7,6.3,18.3,1,19.3-8.4c0.9-8.4-2-21.8-11.2-24.4
	C117,45.6,109,53.5,110.8,62.5z"/>
<path class="st2" d="M117,52.2c2.1,3.9,1,6.4-1.9,13.3c-1.2,2.9-3.2,5.9-6.4,0.8c-3.1-4.7-7.7-13.6-3.7-14.5
	C110.4,50.6,117,52.2,117,52.2z"/>
<path class="st2" d="M114.4,54.7c3.7,1.2,6.7-0.6,7.3-2.4c3,1.3,6.9,1.4,8.1-0.2c2.5,0,5.2,0.4,6.3-3.1s-0.3-6.7-4.1-8.6
	c-0.1,0.8-2.1,1.9-4,0.5c-1.9-1.3-5.4-0.9-6.8,0.4c-4-1-6.9-1.7-9.3,1c-3.8-0.8-8.6,2.7-7.9,5.7c-3,3.7-0.1,6.8,3,7.3
	C107.7,57.1,113.6,56.3,114.4,54.7z"/>
<path class="st3" d="M107.9,73c1.5,2,3.8,3.1,5.8,3.3c3,0.3,4-2.5,2.7-5.2c-1.1-2.4-4.1-5.4-6.9-4.5S106.1,70.8,107.9,73z"/>
<path class="st9" d="M117.9,177.6c0,0,0.9,11.6,2.3,27.2c1.4,17.7,3.2,40.8,4.2,58.4c0,0.1,0,0.2,0,0.2c0.2,3.3,0.4,6.5,0.5,9.3
	c1.4,28.7,4.2,112,4.2,112h15.6c0,0,7.8-85.1,8.1-114.3c0.3-28.1-2.7-92.9-2.7-92.9L117.9,177.6L117.9,177.6L117.9,177.6z"/>
<path class="st8" d="M128,380c-0.1,0,0.1,5.1,0.1,5.1H146l0.6-5.7L128,380z"/>
<path class="st7" d="M120.2,204.9c1.4,17.7,3.2,40.8,4.2,58.4c0,0.1,0,0.2,0,0.2c3.8-16.6,5.4-37.3,4.8-71.5L120.2,204.9z"/>
<path class="st9" d="M132.8,177.6c0,0-8.7,66.4-13.8,92.7c-5.6,28.9-37.3,102.3-37.3,102.3l-16.3-4.1c0,0,23.2-67,26.1-95.5
	c3.1-30.9,9.6-95.4,9.6-95.4L132.8,177.6L132.8,177.6z"/>
<path class="st8" d="M66.3,364.2c-0.1,0-1.9,4.3-1.9,4.3l17.9,4.5l2.8-4.8L66.3,364.2z"/>
<path class="st2" d="M124.7,63.7c0.1,0.7,0.5,1.3,1,1.2c0.5,0,0.8-0.7,0.7-1.4c-0.1-0.7-0.5-1.3-1-1.2
	C124.9,62.2,124.6,62.9,124.7,63.7z"/>
<path class="st2" d="M132.9,62.7c0.1,0.7,0.5,1.3,1,1.2c0.5,0,0.8-0.7,0.7-1.4s-0.5-1.3-1-1.2S132.8,62,132.9,62.7z"/>
<path class="st10" d="M130.4,63.5c0,0,2.2,4.1,4.2,6c-1.1,1.3-3.4,1-3.4,1L130.4,63.5z"/>
<path class="st2" d="M129.3,72.4c0.1,0,0.2-0.1,0.2-0.2c0-0.1-0.1-0.2-0.2-0.2c-3.2,0.4-5.1-1.7-5.1-1.7c-0.1-0.1-0.2-0.1-0.3,0
	c-0.1,0.1-0.1,0.2,0,0.3C124,70.8,125.9,73,129.3,72.4z"/>
<path class="st2" d="M121.8,61.2c0.1,0,0.2-0.1,0.3-0.2c0.9-1.7,2.6-1.8,2.6-1.8c0.2,0,0.4-0.2,0.4-0.4s-0.2-0.4-0.4-0.4
	c-0.1,0-2.1,0.1-3.3,2.2c-0.1,0.2,0,0.5,0.2,0.6C121.7,61.2,121.7,61.2,121.8,61.2z"/>
<path class="st2" d="M136.2,59.4c0.1,0,0.1,0,0.2-0.1c0.2-0.1,0.2-0.4,0.1-0.6c-1.4-2-3.4-2-3.5-2c-0.2,0-0.4,0.2-0.4,0.4
	s0.2,0.4,0.4,0.4l0,0c0.1,0,1.7,0,2.8,1.5C135.9,59.3,136.1,59.4,136.2,59.4z"/>
<path class="st3" d="M91.5,107.5l11.9,6.4c0,0-13.5,29.2-11.8,33.6c2.4,5.9,6.2,19,10.3,25.4c-0.3,1.4-2.4,5.1-3.6,5.7
	c-9.5-5.8-20.3-25.7-20.5-31.5C77.4,134,91.5,107.5,91.5,107.5z"/>
<path class="st5" d="M96.2,93.8c-8.7,1.2-17.8,31.5-17.8,31.5L97,135.6c0,0,7.7-14.3,11.4-25C112.1,99.4,105.5,92.5,96.2,93.8z"/>
<path class="st6" d="M96.2,93.8c-8.7,1.2-17.8,31.5-17.8,31.5L97,135.6c0,0,7.7-14.3,11.4-25C112.1,99.4,105.5,92.5,96.2,93.8z"/>
<path class="st5" d="M76.2,384.7c0.6,0.2,1.3,0.3,1.9,0.1c0.4-0.2,0.6-0.5,0.7-0.9c0.1-0.3,0-0.6-0.2-0.7c-0.8-0.8-4.1,0-4.5,0.1
	c-0.1,0-0.1,0.1-0.2,0.2c0,0.1,0,0.2,0.1,0.2C74.6,384,75.4,384.4,76.2,384.7z M78.1,383.4c0.1,0,0.2,0.1,0.2,0.1s0.1,0.1,0.1,0.3
	c-0.1,0.3-0.2,0.5-0.5,0.6c-0.6,0.2-1.8-0.1-3.1-0.9C75.8,383.3,77.4,383.1,78.1,383.4z"/>
<path class="st5" d="M74.1,383.7L74.1,383.7c1.1-0.2,3.5-1.5,3.6-2.6c0-0.2,0-0.5-0.5-0.7c-0.3-0.1-0.6-0.2-0.9,0
	c-1.2,0.5-2.3,3-2.3,3.1C73.8,383.5,73.8,383.5,74.1,383.7C73.9,383.6,74.1,383.7,74.1,383.7z M76.9,380.7L76.9,380.7
	c0.3,0.2,0.3,0.3,0.3,0.3c-0.1,0.6-1.7,1.7-2.8,2.1c0.3-0.7,1-2.1,1.9-2.4C76.5,380.6,76.7,380.6,76.9,380.7z"/>
<path class="st5" d="M144.9,397.7c0.9,0,1.8-0.1,2.3-0.5c0.3-0.3,0.4-0.6,0.4-1c0-0.3-0.2-0.4-0.4-0.6c-1.1-0.6-4.7,1.2-5.2,1.4
	c-0.1,0-0.1,0.1-0.1,0.2s0.1,0.2,0.2,0.2C142.8,397.6,143.9,397.7,144.9,397.7z M146.6,395.9c0.2,0,0.3,0,0.4,0.1
	c0.1,0,0.1,0.1,0.1,0.2c0,0.3,0,0.5-0.2,0.7c-0.5,0.5-2.1,0.6-4.1,0.2C144,396.5,145.6,395.9,146.6,395.9z"/>
<path class="st5" d="M142.1,397.4L142.1,397.4c1.1-0.5,3.3-2.5,3.1-3.5c0-0.2-0.2-0.5-0.8-0.6c-0.4-0.1-0.8,0.1-1.2,0.4
	c-1.1,0.9-1.3,3.4-1.3,3.5S141.9,397.3,142.1,397.4C142,397.4,142,397.4,142.1,397.4z M144.2,393.7h0.1c0.4,0,0.4,0.2,0.4,0.2
	c0.1,0.6-1.3,2.2-2.5,2.9c0.1-0.7,0.4-2.2,1.1-2.8C143.7,393.8,144,393.7,144.2,393.7z"/>
<path class="st3" d="M100.1,171.7l8.8,0.9l-6,8.8c0,0-7.6-1-7.9-7L100.1,171.7z"/>
<polygon class="st3" points="113.8,176 108,183.6 102.8,181.4 108.9,172.6 "/>
<g>
	<g>
		<g>
			<path class="st6" d="M425.9,171.2l8.7,100.4c0.7,8.1-4.3,15.4-11.1,15.9L233,303.8c-6.8,0.6-13-5.6-13.6-13.8l-8.7-100.4
				c-0.2-2,0-3.8,0.4-5.6c1.3-5.6,5.5-9.8,10.6-10.3l190.5-16.3c5.2-0.4,10,3,12.3,8.4C425.2,167.4,425.7,169.3,425.9,171.2z"/>
			<path class="st11" d="M425.9,171.2l8.7,100.4c0.7,8.1-4.3,15.4-11.1,15.9L233,303.8c-6.8,0.6-13-5.6-13.6-13.8l-8.7-100.4
				c-0.2-2,0-3.8,0.4-5.6c1.3-5.6,5.5-9.8,10.6-10.3l190.5-16.3c5.2-0.4,10,3,12.3,8.4C425.2,167.4,425.7,169.3,425.9,171.2z"/>
		</g>
		<path class="st8" d="M434.4,153.3l12.5,102.9c1,8.4-3.9,15.9-10.8,16.8l-195.2,23.6c-7,0.8-13.5-5.4-14.5-13.7L213.8,180
			c-0.2-2-0.1-4,0.2-5.8c1.2-5.8,5.3-10.3,10.6-10.9l195.2-23.6c5.3-0.6,10.3,2.8,12.9,8.1C433.6,149.4,434.2,151.2,434.4,153.3z"/>
		<path class="st12" d="M432.8,147.7l-88.6,59.6c-9,6.1-19.8,7.3-30,3.6L214,174.1c1.2-5.8,5.3-10.3,10.6-10.9l195.2-23.6
			C425.1,139,430.2,142.4,432.8,147.7z"/>
		<g>
			<path class="st5" d="M399.8,169.9L374.3,187l-8.4,5.6l-21.8,14.7c-8.8,5.9-19.3,7.3-29.2,3.9c-0.2-0.1-0.5-0.2-0.7-0.2l-12.2-4.4
				l-27.4-10.1l-12.9-4.7l-14.5-5.4l-1-25.8l-2.3-57.1L355.7,99l42.6,32.3l0.4,10.9L399.8,169.9z"/>
			<path class="st13" d="M399.8,169.9L374.3,187l-8.4,5.6l-21.8,14.7c-8.8,5.9-19.3,7.3-29.2,3.9c-0.2-0.1-0.5-0.2-0.7-0.2
				l-12.2-4.4l-27.4-10.1l-12.9-4.7l-14.5-5.4l-1-25.8l-2.3-57.1L355.7,99l42.6,32.3l0.4,10.9L399.8,169.9z"/>
			<g class="st14">
				<path class="st4" d="M384,142.6l-123.8,5.1c-1.4,0.1-2.7-1-2.8-2.5l0,0c-0.1-1.4,1-2.7,2.5-2.8l123.8-5.1c1.4-0.1,2.7,1,2.8,2.5
					l0,0C386.6,141.2,385.4,142.5,384,142.6z"/>
				<path class="st4" d="M384.6,159l-123.8,5c-1.4,0.1-2.7-1-2.8-2.5l0,0c-0.1-1.4,1-2.7,2.5-2.8l123.8-5.1c1.4-0.1,2.7,1,2.8,2.5
					l0,0C387.3,157.7,386.1,159,384.6,159z"/>
				<path class="st4" d="M385.3,175.5l-123.8,5.1c-1.4,0.1-2.7-1-2.8-2.5l0,0c-0.1-1.4,1-2.7,2.5-2.8l123.8-5.1
					c1.4-0.1,2.7,1,2.8,2.5l0,0C387.9,174.1,386.8,175.4,385.3,175.5z"/>
				<path class="st4" d="M374.3,187l-8.4,5.6l-91.5,3.7l-12.9-4.7c0.1,0,0.2,0,0.3,0L374.3,187z"/>
				<path class="st4" d="M340.5,207.6L340.5,207.6c0,1.5-1.1,2.7-2.5,2.8l-22.9,0.9c-0.2-0.1-0.5-0.2-0.7-0.2l-12.2-4.4l35.7-1.4
					C339.1,205,340.4,206.1,340.5,207.6z"/>
			</g>
			<polygon class="st15" points="398.2,131.1 368.6,129.9 355.5,98.8 			"/>
			<polygon class="st8" points="398.2,131.1 369.4,126.3 355.5,98.8 			"/>
		</g>
	</g>
</g>
</svg>
